HIERARCHY
ROOT Hips
{
	OFFSET 0.000000 0.000000 0.000000 
	CHANNELS 6 Xposition Yposition Zposition Yrotation Zrotation Xrotation 
	JOINT Lumbar
	{
		OFFSET 0.000000 0.000000 0.000000 
		CHANNELS 3 Zrotation Xrotation Yrotation
		JOINT Neck
		{
			OFFSET 0.000000 0.445665 0.000000 
			CHANNELS 3 Zrotation Xrotation Yrotation
			End Site
			{
				OFFSET 0.000000 0.227535 0.000000 
			}
		}
		JOINT RightShoulder
		{
			OFFSET 0.019635 0.377685 0.194865 
			CHANNELS 3 Zrotation Xrotation Yrotation
			JOINT RightElbow
			{
				OFFSET 0.000000 -0.243375 0.000000 
				CHANNELS 2 Zrotation Yrotation
				JOINT RightWrist
				{
					OFFSET 0.000000 -0.264825 0.000000 
					CHANNELS 2 Zrotation Xrotation
					End Site
					{
						OFFSET 0.006600 -0.176220 0.000990 
					}
				}
			}
		}
		JOINT LeftShoulder
		{
			OFFSET 0.019635 0.377685 -0.194865 
			CHANNELS 3 Zrotation Xrotation Yrotation
			JOINT LeftElbow
			{
				OFFSET 0.000000 -0.243375 0.000000 
				CHANNELS 2 Zrotation Yrotation
				JOINT LeftWrist
				{
					OFFSET 0.000000 -0.264825 0.000000 
					CHANNELS 2 Zrotation Xrotation
					End Site
					{
						OFFSET 0.006600 -0.176220 -0.000990 
					}
				}
			}
		}
	}
	JOINT RightHip
	{
		OFFSET 0.052140 -0.069960 0.075570 
		CHANNELS 3 Zrotation Xrotation Yrotation
		JOINT RightKnee
		{
			OFFSET 0.000000 -0.402270 0.000000 
			CHANNELS 1 Zrotation
			JOINT RightAnkle
			{
				OFFSET 0.000000 -0.404085 0.000000 
				CHANNELS 3 Zrotation Xrotation Yrotation
				End Site
				{
					OFFSET 0.204105 -0.089430 0.008415 
				}
			}
		}
	}
	JOINT LeftHip
	{
		OFFSET 0.052140 -0.069960 -0.075570 
		CHANNELS 3 Zrotation Xrotation Yrotation
		JOINT LeftKnee
		{
			OFFSET 0.000000 -0.402270 0.000000 
			CHANNELS 1 Zrotation
			JOINT LeftAnkle
			{
				OFFSET 0.000000 -0.404085 0.000000 
				CHANNELS 3 Zrotation Xrotation Yrotation
				End Site
				{
					OFFSET 0.204105 -0.089430 -0.008415 
				}
			}
		}
	}
}
MOTION
Frames: 22
Frame Time: 0.02
-0.29179 -0.30472 0.24098 19.22642 -40.22372 -9.41555 6.80464 0.75428 1.54117 45.73805 1.48314 -2.11991 49.17856 16.2147 48.79063 59.02731 130.53831 19.78898 8.13264 45.75176 -16.21463 -55.63404 76.62316 -120.21574 35.10212 -2.21838 120.01305 -5.97592 -23.23864 -83.34295 -8.95672 -0.66162 -2.67352 123.06198 19.58168 39.65226 -118.94855 -9.79441 2.22095 3.47092
-0.29202 -0.30475 0.24102 19.19561 -40.18488 -9.42396 6.79938 0.77366 1.53374 45.72145 1.52162 -2.11991 49.14803 16.2147 48.78614 58.9654 130.53209 19.75344 8.10163 45.77358 -16.21464 -55.63406 76.51741 -120.2578 35.00444 -2.25732 120.03655 -5.83888 -23.08598 -83.33484 -8.95746 -0.67283 -2.67896 123.03667 19.64034 39.56829 -119.19644 -9.75449 2.23194 3.47417
-0.29219 -0.30489 0.24094 19.14107 -40.1547 -9.4352 6.80676 0.78189 1.51792 45.70953 1.56224 -2.11991 49.11937 16.2147 48.77048 58.88189 130.5228 19.71346 8.06821 45.79516 -16.21465 -55.63409 76.3919 -120.30231 34.9155 -2.29786 120.06547 -5.68011 -22.9331 -83.31138 -8.95483 -0.68228 -2.68323 123.01595 19.72083 39.48883 -119.42949 -9.72192 2.2395 3.47589
-0.29239 -0.30498 0.24092 19.09818 -40.12162 -9.44554 6.80852 0.79499 1.506 45.69542 1.60145 -2.11991 49.08998 16.2147 48.75832 58.80865 130.51604 19.67896 8.03905 45.81562 -16.21467 -55.63411 76.27481 -120.34536 34.82505 -2.33729 120.09079 -5.53606 -22.78567 -83.29517 -8.95374 -0.69197 -2.68776 122.99376 19.79064 39.40878 -119.66283 -9.68717 2.24839 3.47826
-0.2926 -0.30507 0.24087 19.05155 -40.08334 -9.45396 6.80904 0.80902 1.49285 45.68089 1.64119 -2.11991 49.06089 16.2147 48.75395 58.73251 130.50417 19.63072 7.99625 45.84111 -16.21468 -55.63414 76.16097 -120.38917 34.72435 -2.3786 120.12146 -5.36916 -22.61263 -83.27843 -8.95257 -0.70428 -2.69359 122.9685 19.86274 39.32194 -119.92513 -9.64704 2.25864 3.481
-0.29277 -0.30518 0.24085 19.00658 -40.05827 -9.46784 6.81548 0.81843 1.48165 45.66917 1.6822 -2.11991 49.02995 16.2147 48.72914 58.65868 130.5025 19.60892 7.98126 45.85548 -16.21469 -55.63417 76.03464 -120.43294 34.64664 -2.41616 120.14207 -5.24484 -22.49382 -83.25856 -8.95081 -0.71065 -2.69639 122.95095 19.93668 39.25002 -120.12326 -9.62002 2.26489 3.48244
-0.29285 -0.30531 0.24101 18.97836 -40.06741 -9.48794 6.83473 0.81777 1.46483 45.65686 1.70931 -2.11991 49.01052 16.2147 48.66515 58.58296 130.52822 19.67113 8.04513 45.84751 -16.21469 -55.63417 75.88675 -120.46667 34.63598 -2.44429 120.13338 -5.25255 -22.52713 -83.23814 -8.94776 -0.70059 -2.6908 122.95296 19.99659 39.22493 -120.1435 -9.62758 2.26332 3.48186
-0.29289 -0.30545 0.2412 18.95151 -40.08951 -9.51489 6.85976 0.8129 1.45255 45.6483 1.74067 -2.11991 48.98631 16.2147 48.57873 58.51219 130.56493 19.75845 8.13666 45.82713 -16.21469 -55.63417 75.72513 -120.50157 34.64775 -2.46828 120.1143 -5.30236 -22.61471 -83.21436 -8.9443 -0.68468 -2.68223 122.96268 20.05965 39.21364 -120.10008 -9.64811 2.25746 3.47984
-0.29294 -0.30558 0.24135 18.91995 -40.10615 -9.54402 6.88246 0.80988 1.44685 45.64314 1.78116 -2.11991 48.95292 16.2147 48.49255 58.44877 130.59724 19.82754 8.21491 45.80688 -16.21469 -55.63417 75.56495 -120.54255 34.64478 -2.49335 120.10006 -5.32769 -22.67681 -83.18911 -8.94139 -0.67164 -2.67516 122.96939 20.13088 39.1918 -120.08849 -9.66267 2.25181 3.47762
-0.29305 -0.30573 0.24162 18.90489 -40.12204 -9.55095 6.90408 0.80643 1.4048 45.61779 1.77525 -2.11991 48.96658 16.2147 48.44624 58.3466 130.62568 19.92449 8.29695 45.80912 -16.21469 -55.63417 75.42576 -120.55742 34.65879 -2.52207 120.08569 -5.37581 -22.74368 -83.17557 -8.93696 -0.65751 -2.6674 122.97442 20.16432 39.18812 -120.06466 -9.67783 2.25294 3.47876
-0.29302 -0.30584 0.24164 18.85599 -40.14147 -9.60566 6.92948 0.80338 1.43912 45.63381 1.8667 -2.11991 48.88225 16.2147 48.31391 58.32344 130.66641 19.97039 8.37661 45.76254 -16.21469 -55.63417 75.23807 -120.62474 34.64578 -2.54189 120.06886 -5.38546 -22.81176 -83.13757 -8.9355 -0.64446 -2.66046 122.98441 20.27445 39.14989 -120.05082 -9.6947 2.23951 3.47284
-0.29264 -0.30579 0.24099 18.71479 -40.17578 -9.79105 6.96125 0.79941 1.6882 45.77572 2.2288 -2.11991 48.51813 16.2147 47.92992 58.54366 130.72455 19.86087 8.4527 45.57526 -16.21469 -55.63417 74.93519 -120.85472 34.52571 -2.54059 120.04899 -5.29038 -22.88562 -83.02807 -8.94341 -0.63441 -2.65587 123.00862 20.61653 39.01194 -120.08484 -9.71304 2.18218 3.44536
-0.29213 -0.30568 0.2401 18.53953 -40.21144 -10.02417 6.99717 0.79654 2.01336 45.95656 2.68855 -2.11991 48.05739 16.21469 47.46325 58.83792 130.79709 19.70054 8.52392 45.34044 -16.21469 -55.63416 74.58139 -121.13367 34.3825 -2.52996 120.02646 -5.15333 -22.95619 -82.89498 -8.95414 -0.62588 -2.65231 123.03698 21.03136 38.83851 -120.13026 -9.73254 2.1112 3.41123
-0.2917 -0.30561 0.23931 18.37882 -40.24121 -10.23516 7.03273 0.79528 2.30011 46.11159 3.1013 -2.11991 47.64781 16.21469 47.04816 59.08167 130.87239 19.56918 8.59059 45.1339 -16.2147 -55.63418 74.24062 -121.37875 34.26773 -2.5221 120.00471 -5.02757 -23.01757 -82.7759 -8.9629 -0.61763 -2.6487 123.06196 21.39944 38.68244 -120.16752 -9.75162 2.04968 3.38175
-0.29118 -0.30553 0.23856 18.22135 -40.2944 -10.44833 7.06158 0.78523 2.60209 46.30187 3.52384 -2.11991 47.20784 16.21468 46.57572 59.39876 130.90958 19.41455 8.68555 44.90087 -16.2147 -55.63418 73.94116 -121.67441 34.07873 -2.52054 119.98562 -4.93503 -23.12472 -82.64292 -8.97454 -0.60523 -2.64326 123.0939 21.8267 38.52328 -120.21536 -9.77106 1.97449 3.34546
-0.29082 -0.30544 0.23767 18.04993 -40.29811 -10.66812 7.1059 0.79348 2.89177 46.42686 3.95091 -2.11991 46.80778 16.21468 46.20019 59.57812 131.02845 19.29512 8.7216 44.70923 -16.21467 -55.63412 73.54487 -121.87444 34.03773 -2.50337 119.95897 -4.76414 -23.13662 -82.53318 -8.98085 -0.60175 -2.64185 123.11177 22.14634 38.35987 -120.24442 -9.7894 1.92429 3.32164
-0.29099 -0.30536 0.23648 17.84061 -40.17184 -10.89528 7.18719 0.85502 3.11677 46.37126 4.35094 -2.11991 46.54602 16.21467 46.1399 59.37989 131.37762 19.29342 8.58264 44.66591 -16.21475 -55.63429 72.88555 -121.8131 34.41844 -2.44798 119.92533 -4.37512 -22.87203 -82.49481 -8.9719 -0.62402 -2.652 123.0937 22.16499 38.21183 -120.22162 -9.80857 1.94899 3.33543
-0.29133 -0.30528 0.23517 17.61981 -39.99431 -11.12728 7.28486 0.93456 3.32893 46.24694 4.75481 -2.11991 46.32705 16.21465 46.17485 59.03635 131.80684 19.32776 8.38674 44.66155 -16.21463 -55.63405 72.13311 -121.65013 34.94751 -2.37655 119.88183 -3.91062 -22.51387 -82.48037 -8.95749 -0.65503 -2.66608 123.06064 22.0705 38.05767 -120.17944 -9.82596 1.99892 3.36177
-0.29155 -0.3052 0.23393 17.40937 -39.83569 -11.35654 7.37801 1.00367 3.55503 46.14793 5.16753 -2.11991 46.08544 16.21464 46.1485 58.7459 132.19397 19.3395 8.22588 44.62503 -16.21467 -55.63412 71.42749 -121.52525 35.40354 -2.311 119.83416 -3.48852 -22.20794 -82.45407 -8.9455 -0.68106 -2.67791 123.03168 22.01823 37.89363 -120.14446 -9.84107 2.03556 3.38132
-0.29191 -0.30511 0.23262 17.17621 -39.69588 -11.58975 7.4586 1.08165 3.74992 46.07501 5.54002 -2.11991 45.8535 16.21462 46.19589 58.51357 132.60588 19.37369 8.027 44.64877 -16.21502 -55.63484 70.69713 -121.44013 35.88203 -2.25179 119.82269 -3.03128 -21.86188 -82.43115 -8.93383 -0.71121 -2.69163 123.01393 22.00608 37.78006 -120.11614 -9.86834 2.07913 3.40504
-0.29204 -0.30504 0.23143 16.98788 -39.50439 -11.81527 7.56962 1.14627 4.00534 45.93129 5.99457 -2.11991 45.61337 16.21461 46.11268 58.12361 132.98481 19.37291 7.8928 44.55573 -16.21393 -55.63264 70.0018 -121.24257 36.34985 -2.17479 119.7338 -2.62924 -21.57604 -82.4071 -8.92019 -0.73506 -2.70245 122.96971 21.88411 37.56256 -120.0698 -9.87103 2.11482 3.42338
-0.29136 -0.30499 0.23064 16.9283 -39.18493 -12.01808 7.75724 1.16218 4.4343 45.60476 6.68588 -2.11991 45.3355 16.21462 45.65095 57.34392 133.25272 19.24439 7.95993 44.1421 -16.21564 -55.63605 69.38463 -120.80273 36.74752 -2.06101 119.43076 -2.40375 -21.48962 -82.37508 -8.90218 -0.73743 -2.70338 122.8516 21.47204 37.04061 -119.97326 -9.79599 2.11946 3.42171
